<?xml version="1.0" encoding="utf-8"?>
<!-- Generator: Adobe Illustrator 24.0.0, SVG Export Plug-In . SVG Version: 6.00 Build 0)  -->
<svg version="1.1" id="图层_1" xmlns="http://www.w3.org/2000/svg" xmlns:xlink="http://www.w3.org/1999/xlink" x="0px" y="0px"
	 viewBox="0 0 60 60" style="enable-background:new 0 0 60 60;" xml:space="preserve">
<style type="text/css">
	.st0{fill:url(#SVGID_1_);}
	.st1{fill:#FFFFFF;}
</style>
<linearGradient id="SVGID_1_" gradientUnits="userSpaceOnUse" x1="0" y1="10098" x2="60" y2="10098" gradientTransform="matrix(1 0 0 1 0 -10068)">
	<stop  offset="0" style="stop-color:#31D8FF"/>
	<stop  offset="1" style="stop-color:#FF80FF"/>
</linearGradient>
<path class="st0" d="M60,30c0,16.6-13.4,30-30,30S0,46.6,0,30S13.4,0,30,0S60,13.4,60,30z"/>
<path class="st1" d="M44.7,46.1H15.3c-0.8,0-1.5-0.5-1.7-1.2l-7-23c-0.2-0.7,0-1.4,0.5-1.8c0.5-0.5,1.3-0.5,1.9-0.2l10.1,4.9
	l9.5-10.9c0.3-0.4,0.8-0.6,1.3-0.6s1,0.2,1.3,0.6l9.5,10.9l10.1-4.9c0.6-0.3,1.4-0.2,1.9,0.2c0.5,0.5,0.7,1.2,0.5,1.8l-7,23
	C46.2,45.6,45.5,46.1,44.7,46.1z M16.6,42.6h26.8l5.4-17.9l-7.7,3.7c-0.7,0.3-1.6,0.2-2.1-0.4l-9-10.4L21,28
	c-0.5,0.6-1.4,0.8-2.1,0.4l-7.7-3.7L16.6,42.6z"/>
</svg>
