<?xml version="1.0" encoding="utf-8"?>
<!-- Generator: Adobe Illustrator 24.0.0, SVG Export Plug-In . SVG Version: 6.00 Build 0)  -->
<svg version="1.1" id="图层_1" xmlns="http://www.w3.org/2000/svg" xmlns:xlink="http://www.w3.org/1999/xlink" x="0px" y="0px"
	 viewBox="0 0 60 60" style="enable-background:new 0 0 60 60;" xml:space="preserve">
<style type="text/css">
	.st0{fill:url(#SVGID_1_);}
	.st1{fill:#FFFFFF;}
</style>
<linearGradient id="SVGID_1_" gradientUnits="userSpaceOnUse" x1="0" y1="18610" x2="60" y2="18610" gradientTransform="matrix(1 0 0 1 0 -18580)">
	<stop  offset="0" style="stop-color:#31D8FF"/>
	<stop  offset="1" style="stop-color:#FF80FF"/>
</linearGradient>
<path class="st0" d="M60,30c0,16.6-13.4,30-30,30S0,46.6,0,30S13.4,0,30,0S60,13.4,60,30z"/>
<g>
	<path class="st1" d="M53.3,21.3c-0.1-0.7-0.5-1.3-1.2-1.5s-1.4,0-1.9,0.6c-2.3,2.8-5.2,4.2-6.8,4.8c-4.5-8.5-11.7-16.2-12-16.6
		C31,8.2,30.5,8,30,8s-1,0.2-1.3,0.6c-0.3,0.3-7.6,8.1-12,16.6c-1.6-0.6-4.6-1.9-6.8-4.8c-0.5-0.6-1.2-0.8-1.9-0.6
		c-0.7,0.2-1.2,0.8-1.2,1.5c-0.8,10.6,1.5,18.8,6.7,24.4c6.8,7.4,16.2,7.5,16.6,7.5c0.4,0,9.8-0.1,16.6-7.5
		C51.8,40.1,54.1,31.9,53.3,21.3z M44.1,43.3c-5.7,6.2-13.8,6.4-14.1,6.4c-0.2,0-8.3-0.2-14.1-6.4c-3.9-4.2-5.8-10.2-5.9-17.8
		c3.5,2.7,7,3.4,7.2,3.5c0.8,0.1,1.6-0.2,1.9-1c3.1-6.4,8.4-12.8,10.8-15.6c2.4,2.8,7.7,9.2,10.8,15.6c0.3,0.7,1.1,1.1,1.9,1
		c0.2,0,3.7-0.7,7.2-3.5C49.9,33.1,47.9,39.1,44.1,43.3z"/>
	<path class="st1" d="M29.9,20.6c-0.9-0.4-1.9,0.1-2.3,1L24.7,29c-3.3,3.6-3.8,9-1.3,13.1l1,1.7c0.3,0.5,0.9,0.8,1.5,0.8
		c0.3,0,0.6-0.1,0.9-0.3c0.8-0.5,1.1-1.6,0.6-2.4l-1-1.7c-1.8-2.9-1.3-6.7,1-9.2c0.2-0.2,0.3-0.4,0.4-0.6l3-7.7
		C31.2,22,30.8,21,29.9,20.6z"/>
</g>
</svg>
