<?xml version="1.0" encoding="utf-8"?>
<!-- Generator: Adobe Illustrator 24.0.0, SVG Export Plug-In . SVG Version: 6.00 Build 0)  -->
<svg version="1.1" id="Capa_1" xmlns="http://www.w3.org/2000/svg" xmlns:xlink="http://www.w3.org/1999/xlink" x="0px" y="0px"
	 viewBox="0 0 50 50" style="enable-background:new 0 0 50 50;" xml:space="preserve">
<style type="text/css">
	.st0{fill:#50ABF1;}
	.st1{fill:#FFFFFF;}
</style>
<g>
	<rect class="st0" width="50" height="50"/>
	<path class="st1" d="M6.6,37.1c3.3,2.1,7.3,3.3,11.5,3.3c11.9,0,21.5-9.6,21.5-21.5c0-0.3,0-0.6,0-0.9c0.4-0.3,3.1-2.5,3.7-3.8
		c0,0-2.2,0.9-4.3,1.1c0,0,0,0,0,0c0,0,0,0,0,0c0.2-0.1,2.9-2,3.3-4.2c0,0-1.5,0.8-3.7,1.5c-0.4,0.1-0.7,0.2-1.1,0.3
		c-1.4-1.5-3.3-2.4-5.5-2.4c-4.2,0-7.6,3.4-7.6,7.5c0,0.6,0.1,1.2,0.2,1.7c-0.6,0-9.5-0.5-15.5-7.8c0,0-3.6,4.9,2.2,10
		c0,0-1.8-0.1-3.3-1c0,0-0.6,6,6,7.5c0,0-1.3,0.5-3.3,0.1c0,0,1.1,4.8,6.9,5.3C17.7,33.9,13.1,38,6.6,37.1L6.6,37.1z"/>
</g>
</svg>
