<?xml version="1.0" encoding="utf-8"?>
<!-- Generator: Adobe Illustrator 24.0.0, SVG Export Plug-In . SVG Version: 6.00 Build 0)  -->
<svg version="1.1" id="Capa_1" xmlns="http://www.w3.org/2000/svg" xmlns:xlink="http://www.w3.org/1999/xlink" x="0px" y="0px"
	 viewBox="0 0 50 50" style="enable-background:new 0 0 50 50;" xml:space="preserve">
<style type="text/css">
	.st0{fill:#00C200;}
	.st1{fill:#FFFFFF;}
	.st2{fill:#00C500;}
</style>
<g>
	<rect class="st0" width="50" height="50"/>
	<g>
		<path class="st1" d="M43.1,24.1c0.1-0.4,0.1-0.8,0.1-1.1c0-0.5,0-1.2,0-1.4C42.8,13.8,34.8,7.7,25,7.7c-10.1,0-18.3,6.5-18.3,14.6
			c0,7.4,6.9,13.5,15.9,14.4c0.5,0.1,0.9,0.6,0.9,1.1l-0.4,3.4c-0.1,0.8,0.7,1.3,1.4,1c7.6-3.7,12.1-7.4,14.8-10.7
			c0.5-0.6,2.1-2.8,2.4-3.4C42.4,26.9,42.9,25.5,43.1,24.1z"/>
		<path class="st2" d="M14.9,25.2v-6.1c0-0.5-0.4-0.9-0.9-0.9l0,0c-0.5,0-0.9,0.4-0.9,0.9v7.1c0,0.5,0.4,0.9,0.9,0.9h3.7
			c0.5,0,0.9-0.4,0.9-0.9l0,0c0-0.5-0.4-0.9-0.9-0.9H14.9z"/>
		<path class="st2" d="M20.7,27.1h-0.4c-0.4,0-0.7-0.3-0.7-0.7v-7.5c0-0.4,0.3-0.7,0.7-0.7h0.4c0.4,0,0.7,0.3,0.7,0.7v7.5
			C21.4,26.7,21.1,27.1,20.7,27.1z"/>
		<path class="st2" d="M28.3,19.1v4.3c0,0-3.7-4.9-3.8-4.9c-0.2-0.2-0.4-0.3-0.7-0.3c-0.5,0-0.9,0.5-0.9,1v7c0,0.5,0.4,0.9,0.9,0.9
			l0,0c0.5,0,0.9-0.4,0.9-0.9v-4.3c0,0,3.8,4.9,3.9,5c0.2,0.2,0.4,0.3,0.6,0.3c0.5,0,0.9-0.5,0.9-1v-7c0-0.5-0.4-0.9-0.9-0.9l0,0
			C28.7,18.1,28.3,18.5,28.3,19.1z"/>
		<path class="st2" d="M37.2,19.1L37.2,19.1c0-0.5-0.4-0.9-0.9-0.9h-3.7c-0.5,0-0.9,0.4-0.9,0.9v7.1c0,0.5,0.4,0.9,0.9,0.9h3.7
			c0.5,0,0.9-0.4,0.9-0.9l0,0c0-0.5-0.4-0.9-0.9-0.9h-2.8v-1.7h2.8c0.5,0,0.9-0.4,0.9-0.9l0,0c0-0.5-0.4-0.9-0.9-0.9h-2.8V20h2.8
			C36.7,20,37.2,19.6,37.2,19.1z"/>
	</g>
</g>
</svg>
