<?xml version="1.0" encoding="utf-8"?>
<!-- Generator: Adobe Illustrator 24.0.0, SVG Export Plug-In . SVG Version: 6.00 Build 0)  -->
<svg version="1.1" id="图层_1" xmlns="http://www.w3.org/2000/svg" xmlns:xlink="http://www.w3.org/1999/xlink" x="0px" y="0px"
	 viewBox="0 0 304 65" style="enable-background:new 0 0 304 65;" xml:space="preserve">
<style type="text/css">
	.st0{fill:#FFFFFF;}
</style>
<g>
	<g>
		<path class="st0" d="M82.43,5.25h25.89c18.11,0,29.25,9.26,29.25,24.34c0,20.24-14.99,33.02-35.89,33.02H70.96L82.43,5.25z
			 M102.35,47.53c10.24,0,15.73-7.37,15.73-16.8c0-6.64-4.18-10.41-11.96-10.41h-7.38l-5.41,27.2H102.35z"/>
		<path class="st0" d="M141.67,42.7c0-14.75,11.64-25.73,27.94-25.73c14.83,0,24.34,8.19,24.34,20.73
			c0,14.75-11.63,25.73-27.94,25.73C151.17,63.43,141.67,55.23,141.67,42.7 M175.18,38.6c0-4.18-2.46-7.05-6.64-7.05
			c-4.83,0-8.11,4.02-8.11,10.24c0,4.18,2.46,7.05,6.64,7.05C171.91,48.84,175.18,44.83,175.18,38.6"/>
		<path class="st0" d="M252.86,37.7c0,14.75-10.98,25.73-23.84,25.73c-5.98,0-10.9-1.8-13.52-6.72l-1.15,5.9h-17.62l12.13-60.8
			h18.52l-3.77,19.01c2.95-2.46,6.55-3.85,10.82-3.85C243.35,16.97,252.86,24.34,252.86,37.7 M234.09,38.6
			c0-4.18-2.46-7.05-6.64-7.05c-4.83,0-8.11,4.02-8.11,10.24c0,4.18,2.46,7.05,6.64,7.05C230.82,48.84,234.09,44.83,234.09,38.6"/>
		<path class="st0" d="M280.97,23.67l-1.42,5.15h1.34c12.38,0,19.47,4.92,19.47,14.69c0,12.75-11.41,20.29-26.48,20.29
			c-7.46,0-14.62-1.72-20.14-5.44l7.98-12.23c4.1,2.61,9.02,3.8,13.35,3.8c4.85,0,7.53-1.57,7.53-4.4c0-2.16-1.64-3.43-6.49-3.43
			h-15.89l8.95-31.7h34.68l-2.68,13.28H280.97z"/>
	</g>
	<path class="st0" d="M39.8,0.81c-22.53,0-38.66,15.08-38.66,36.74c0,16.13,12.01,27.44,31.13,27.44
		c22.53,0,38.66-15.08,38.66-36.74C70.92,12.11,58.91,0.81,39.8,0.81 M19.46,24.91c0-4.98,2.62-8.19,6.49-8.19
		c3.34,0,5.31,2.29,5.31,5.64c0,4.98-2.62,8.19-6.49,8.19C21.43,30.54,19.46,28.25,19.46,24.91 M52.62,40.25
		c0,10.89-7.84,16.73-17.87,16.73c-7.06,0-11.07-4.45-11.07-12.73v-7.84l28.94-5.75V40.25z M49.73,25.64
		c-3.34,0-5.31-2.29-5.31-5.64c0-4.98,2.62-8.19,6.49-8.19c3.34,0,5.31,2.29,5.31,5.64C56.22,22.43,53.6,25.64,49.73,25.64"/>
</g>
</svg>
